# xmcd
#
# Track frame offsets: 
#        150
#        10793
#        23828
#        37086
#        50062
#        62269
#        73610
#        88975
#        101495
#        110026
#        119750
#        135463
#        146362
#        159857
#        176332
#        186760
#
# Disc length: 2663 seconds
#
# Revision: 0
# Processed by: cddbd v1.5.2PL0 Copyright (c) Steve Scherf et al.
# Submitted via: ExactAudioCopy v0.95b3
#
DISCID=d90a6510
DTITLE=Del Shannon  - Home And Away (1967) [FLAC] {Remaster Bonus Trac
DTITLE=ks}  FLAC
DYEAR=1900
DGENRE=
TTITLE0=It's My Feeling
TTITLE1=Mind Over Matter
TTITLE2=Silently
TTITLE3=Cut And Come Again
TTITLE4=My Love Has Gone
TTITLE5=Led Along
TTITLE6=Life Is But Nothing
TTITLE7=Easy To Say
TTITLE8=Friendly With You
TTITLE9=He Cheated
TTITLE10=Runaway '61
TTITLE11=Led Along
TTITLE12=Mind Over Matter
TTITLE13=Runaway '67
TTITLE14=He Cheated
TTITLE15=Silently
EXTD=
EXTT0=
EXTT1=
EXTT2=
EXTT3=
EXTT4=
EXTT5=
EXTT6=
EXTT7=
EXTT8=
EXTT9=
EXTT10=
EXTT11=
EXTT12=
EXTT13=
EXTT14=
EXTT15=
PLAYORDER=
